HIERARCHY
ROOT hip
{
	OFFSET 0.000000 0.000000 0.000000 
	CHANNELS 6 Xposition Yposition Zposition Xrotation Zrotation Yrotation
	JOINT abdomen
	{
		OFFSET 0.000000 3.402643 0.000000 
		CHANNELS 3 Xrotation Zrotation Yrotation
		JOINT chest
		{
			OFFSET 0.000000 8.438565 -0.680529 
			CHANNELS 3 Xrotation Zrotation Yrotation
			JOINT neck
			{
				OFFSET 0.000000 10.207942 -0.272212 
				CHANNELS 3 Xrotation Zrotation Yrotation
				JOINT head
				{
					OFFSET 0.000000 3.130431 0.000000 
					CHANNELS 3 Xrotation Zrotation Yrotation
					End Site
					{
						OFFSET 0.000000 3.130435 0.000000 
					}
				}
			}
			JOINT lCollar
			{
				OFFSET 3.470700 6.669187 -0.816635 
				CHANNELS 3 Yrotation Zrotation Xrotation
				JOINT lShldr
				{
					OFFSET 3.198488 0.000000 0.000000 
					CHANNELS 3 Zrotation Yrotation Xrotation
					JOINT lForeArm
					{
						OFFSET 10.139888 0.000000 0.000000 
						CHANNELS 3 Yrotation Zrotation Xrotation
						JOINT lHand
						{
							OFFSET 8.370511 0.000000 0.000000 
							CHANNELS 3 Zrotation Yrotation Xrotation
							End Site
							{
								OFFSET 4.083176 0.000000 0.000000 
							}
						}
					}
				}
			}
			JOINT rCollar
			{
				OFFSET -3.470700 6.669187 -0.816635 
				CHANNELS 3 Yrotation Zrotation Xrotation
				JOINT rShldr
				{
					OFFSET -3.198488 0.000000 0.000000 
					CHANNELS 3 Zrotation Yrotation Xrotation
					JOINT rForeArm
					{
						OFFSET -10.139888 0.000000 0.000000 
						CHANNELS 3 Yrotation Zrotation Xrotation
						JOINT rHand
						{
							OFFSET -8.370511 0.000000 0.000000 
							CHANNELS 3 Zrotation Yrotation Xrotation
							End Site
							{
								OFFSET -4.083176 0.000000 0.000000 
							}
						}
					}
				}
			}
		}
	}
	JOINT lThigh
	{
		OFFSET 5.308129 -1.633274 1.361059 
		CHANNELS 3 Xrotation Zrotation Yrotation
		JOINT lShin
		{
			OFFSET -2.041588 -20.007561 0.000000 
			CHANNELS 3 Xrotation Zrotation Yrotation
			JOINT lFoot
			{
				OFFSET 0.000000 -19.190928 -1.224953 
				CHANNELS 3 Xrotation Yrotation Zrotation
				End Site
				{
					OFFSET 0.000000 -2.449906 4.627600 
				}
			}
		}
	}
	JOINT rThigh
	{
		OFFSET -5.308129 -1.633274 1.361059 
		CHANNELS 3 Xrotation Zrotation Yrotation
		JOINT rShin
		{
			OFFSET 2.041588 -20.007561 0.000000 
			CHANNELS 3 Xrotation Zrotation Yrotation
			JOINT rFoot
			{
				OFFSET 0.000000 -19.190928 -1.224953 
				CHANNELS 3 Xrotation Yrotation Zrotation
				End Site
				{
					OFFSET 0.000000 -2.449906 4.627600 
				}
			}
		}
	}
}
MOTION
Frames: 8
Frame Time: 0.016667
0.757996 48.700626 -1.254389 -10.571120 -5.359202 1.617964 0.000000 0.000000 0.000000 15.313460 6.942319 -4.425989 29.047890 -2.252004 -3.352392 -7.011213 -8.671682 0.383868 -12.816783 -7.820271 14.460883 -56.407459 -32.736099 -4.570005 -133.674240 1.565610 12.641432 27.629316 -38.338001 17.371685 1.754010 16.023073 13.078051 53.809353 9.074150 67.313118 10.489884 -13.185476 6.820530 -7.778450 4.566678 -32.815628 2.363815 19.374796 -8.115062 24.606991 -0.691183 -1.484532 -8.667003 3.761601 -13.073815 8.143800 9.218121 12.346658 18.393652 -2.999120 -0.232884 -10.316413 -11.573604 0.230585 
0.845240 48.731941 -1.290512 -10.310484 -5.281233 1.568449 0.000000 0.000000 0.000000 15.221745 6.776261 -4.484177 28.960363 -2.417711 -3.362561 -7.102013 -8.661897 0.404648 -12.837428 -7.974452 14.339357 -56.323547 -32.724140 -4.569586 -133.584503 1.584155 12.648482 27.727943 -38.613529 17.628124 1.763481 15.845587 12.966199 53.537937 9.115778 68.055954 10.756768 -13.185956 6.864533 -7.804761 5.224669 -29.623203 2.100152 19.231813 -7.793461 24.870613 -0.704063 -1.489465 -8.910548 2.680027 -12.902699 7.762987 9.022897 12.799969 18.514256 -3.173912 -0.266290 -10.270406 -12.225127 0.501234 
0.949495 48.762592 -1.324159 -10.036129 -5.115443 1.499508 0.000000 0.000000 0.000000 15.215464 6.688370 -4.512136 28.863533 -2.417662 -3.382074 -7.106429 -8.583657 0.502671 -12.838541 -8.057919 14.312629 -56.339920 -32.746078 -4.303285 -133.414185 1.612203 12.657479 28.538208 -39.262676 17.753231 1.762116 15.756003 12.970531 53.476959 9.193331 68.412125 10.940749 -13.189140 6.891253 -7.629957 5.772752 -26.856270 1.933639 19.070621 -7.662491 24.968956 -0.674754 -1.488056 -9.093619 1.822397 -12.726829 7.489687 8.847134 13.175841 18.436237 -3.164112 -0.255949 -10.181615 -12.460633 0.774594 
1.053812 48.793236 -1.357764 -9.771940 -4.949636 1.430574 0.000000 0.000000 0.000000 15.209622 6.610310 -4.531544 28.776464 -2.417614 -3.401588 -7.100808 -8.505396 0.602151 -12.846829 -8.153250 14.285352 -56.353035 -32.780926 -4.038298 -133.232635 1.640097 12.670794 29.361044 -39.914070 17.857124 1.770319 15.668539 12.974774 53.417507 9.273303 68.771919 11.116275 -13.202991 6.918080 -7.428912 6.311775 -24.086025 1.758314 18.908129 -7.502181 25.067497 -0.635638 -1.484614 -9.272980 0.962799 -12.554865 7.235814 8.681139 13.546955 18.362719 -3.184275 -0.240414 -10.094756 -12.689916 1.083901 
1.178163 48.823772 -1.387309 -9.502148 -4.871636 1.381930 0.000000 0.000000 0.000000 15.208330 6.434641 -4.578963 28.771065 -2.505400 -3.382503 -7.111085 -8.417496 0.611812 -12.848083 -8.322346 14.241505 -56.198853 -32.798923 -3.680792 -132.974335 1.614366 12.744425 30.251478 -40.543133 17.962896 1.767665 15.489371 12.983615 53.566891 9.388562 68.666550 11.206523 -13.200538 6.925580 -7.159342 6.787863 -21.922836 1.582851 18.582451 -7.721843 25.060183 -0.670557 -1.403866 -9.507024 0.554886 -12.238946 6.982386 8.427577 13.654688 18.264816 -3.272021 -0.166174 -10.067089 -12.883137 1.176919 
1.302587 48.854298 -1.416831 -9.243074 -4.793612 1.342187 0.000000 0.000000 0.000000 15.196770 6.268727 -4.626430 28.765604 -2.593189 -3.363000 -7.111566 -8.329595 0.621477 -12.857722 -8.496000 14.206636 -56.049736 -32.811363 -3.313701 -132.706772 1.598798 12.821322 31.163834 -41.171219 18.029125 1.765473 15.319409 12.985762 53.719795 9.495465 68.560921 11.290582 -13.206984 6.944819 -6.859475 7.244368 -19.742878 1.406994 18.266397 -7.949204 25.052601 -0.699871 -1.331581 -9.703999 0.161654 -11.958890 6.713887 8.160428 13.770195 18.146864 -3.359775 -0.101743 -10.052896 -13.079775 1.276324 
1.450508 48.884968 -1.437506 -8.971590 -4.705649 1.390856 0.000000 0.000000 0.000000 15.201785 6.180952 -4.645854 28.666420 -2.612843 -3.304469 -7.203989 -8.329429 0.719517 -12.773462 -8.558013 14.183916 -56.057709 -32.834774 -3.053097 -132.624329 1.606392 12.829003 31.644226 -41.388145 18.033758 1.852793 15.248634 12.979732 53.953999 9.529425 68.366722 11.290582 -13.206984 6.944819 -6.460548 7.487626 -18.084360 1.309548 17.934633 -8.249721 24.876989 -0.709725 -1.315764 -9.802737 0.132615 -11.890510 6.500595 7.839349 14.044899 18.045687 -3.339691 -0.206786 -9.919096 -13.126722 1.540251 
1.598508 48.915642 -1.458158 -8.709969 -4.627450 1.439533 0.000000 0.000000 0.000000 15.195251 6.102830 -4.674984 28.557535 -2.642271 -3.236185 -7.286645 -8.329238 0.818973 -12.700238 -8.620335 14.152631 -56.066303 -32.858360 -2.792552 -132.534744 1.625677 12.834526 32.138397 -41.611408 18.029898 1.928280 15.185247 12.973834 54.179600 9.569851 68.164612 11.290582 -13.206984 6.944819 -6.055871 7.723358 -16.424475 1.211296 17.593382 -8.559881 24.701626 -0.723470 -1.290972 -9.911155 0.087041 -11.798054 6.274715 7.516286 14.319179 17.949594 -3.339845 -0.286229 -9.820395 -13.219110 1.820468 
